<?xml version="1.0" standalone="no"?>
<svg xmlns="http://www.w3.org/2000/svg" xmlns:xlink="http://www.w3.org/1999/xlink" width="1068pt" height="1389pt" viewBox="0.00 0.00 1068.08 1388.63">
<g id="graph0" class="graph" transform="translate(17.854260026859492,1293.6271466060175) scale(0.929160674250915)" data-name="">
<polygon fill="white" stroke="transparent" points="-4,4 -4,-1384.63 1064.08,-1384.63 1064.08,4 -4,4"/>
<!-- Account -->

<!-- account_listing -->
<g id="node10" class="node" pointer-events="visible" data-name="user_listing" data-comment="account_listing">

<polygon fill="#53af16" stroke="black" points="467.85,-660 395.85,-624 467.85,-588 539.85,-624 467.85,-660"/>
<text text-anchor="middle" x="467.85" y="-619.8" font-family="Times,serif" font-size="14.00">Has A</text>
</g>
<!-- Account&#45;&#45;account_listing -->
<g id="edge3" class="edge" data-name="User--user_listing" data-comment="Account--account_listing">

<path fill="none" stroke="black" d="M531.4,-458.19C516.62,-496.76 493.44,-557.22 479.54,-593.49"/>
</g>
<!-- account_profile -->

<!-- Account&#45;&#45;account_profile -->
<g id="edge5" class="edge" data-name="User--user_conversation" data-comment="Account--account_profile">

<path fill="none" stroke="black" d="M617.32,-390.01C648.51,-376.12 683.76,-360.43 709.79,-348.84"/>
</g>
<!-- account_role -->
<g id="node11" class="node" pointer-events="visible" data-name="user_profile" data-comment="account_role">

<polygon fill="#53af16" stroke="black" points="544.33,-261.94 472.33,-225.94 544.33,-189.94 616.33,-225.94 544.33,-261.94"/>
<text text-anchor="middle" x="544.33" y="-221.74" font-family="Times,serif" font-size="14.00">Has A</text>
</g>
<!-- Account&#45;&#45;account_role -->
<g id="edge1" class="edge" data-name="User--user_profile" data-comment="Account--account_role">

<path fill="none" stroke="black" d="M545.07,-385.66C544.91,-350.43 544.66,-297.35 544.5,-262.18"/>
</g>
<!-- account_conversation -->
<g id="node12" class="node" pointer-events="visible" data-name="user_role" data-comment="account_conversation">

<polygon fill="#53af16" stroke="black" points="362.53,-370.67 290.53,-334.67 362.53,-298.67 434.53,-334.67 362.53,-370.67"/>
<text text-anchor="middle" x="362.53" y="-330.47" font-family="Times,serif" font-size="14.00">Has A</text>
</g>
<!-- Account&#45;&#45;account_conversation -->
<g id="edge7" class="edge" data-name="User--user_role" data-comment="Account--account_conversation">

<path fill="none" stroke="black" d="M473.03,-387.55C447.79,-375.47 420.52,-362.42 399.38,-352.31"/>
</g>
<!-- Profile -->
<g id="node2" class="node" pointer-events="visible" data-name="Profile">

<polygon fill="#5394ca" stroke="black" points="628.35,-72 484.35,-72 484.35,0 628.35,0 628.35,-72"/>
<text text-anchor="middle" x="556.35" y="-31.8" font-family="Times,serif" font-size="14.00">Profile</text>
</g>
<!-- Listing -->
<g id="node3" class="node" pointer-events="visible" data-name="Listing">

<polygon fill="#5394ca" stroke="black" points="549.85,-868.5 405.85,-868.5 405.85,-796.5 549.85,-796.5 549.85,-868.5"/>
<text text-anchor="middle" x="477.85" y="-828.3" font-family="Times,serif" font-size="14.00">Listing</text>
</g>
<!-- listing_category -->
<g id="node14" class="node" pointer-events="visible" data-name="listing_category">

<polygon fill="#53af16" stroke="black" points="393.08,-1047.91 321.08,-1011.91 393.08,-975.91 465.08,-1011.91 393.08,-1047.91"/>
<text text-anchor="middle" x="393.08" y="-1007.71" font-family="Times,serif" font-size="14.00">Type Of</text>
</g>
<!-- Listing&#45;&#45;listing_category -->
<g id="edge9" class="edge" data-name="Listing--listing_category">

<path fill="none" stroke="black" d="M460.69,-868.8C444.83,-902.39 421.54,-951.67 406.85,-982.76"/>
</g>
<!-- Category -->
<g id="node4" class="node" pointer-events="visible" data-name="Category">

<polygon fill="#5394ca" stroke="black" points="453.74,-1249.86 309.74,-1249.86 309.74,-1177.86 453.74,-1177.86 453.74,-1249.86"/>
<text text-anchor="middle" x="381.74" y="-1209.66" font-family="Times,serif" font-size="14.00">Category</text>
</g>
<!-- category_category -->
<g id="node15" class="node" pointer-events="visible" data-name="category_category">

<polygon fill="#53af16" stroke="black" points="244.34,-1380.63 172.34,-1344.63 244.34,-1308.63 316.34,-1344.63 244.34,-1380.63"/>
<text text-anchor="middle" x="244.34" y="-1340.43" font-family="Times,serif" font-size="14.00">Child of</text>
</g><g id="edge23" class="edge" data-name="Listing--listing_measurement" data-comment="category_category">

<path fill="none" stroke="black" d="M405.78,-828.01C382.01,-826.52 355.73,-824.89 332.59,-823.44"/>
</g>
<!-- Category&#45;&#45;category_category -->
<g id="edge11" class="edge" data-name="Category--category_category">

<path fill="none" stroke="black" d="M334.68,-1249.96C310.62,-1271.69 282.64,-1298.8 264.22,-1318.49"/>
</g>
<!-- Conversation -->
<g id="node5" class="node" pointer-events="visible" data-name="Conversation">

<polygon fill="#5394ca" stroke="black" points="1021.36,-404.44 877.36,-404.44 877.36,-332.44 1021.36,-332.44 1021.36,-404.44"/>
<text text-anchor="middle" x="949.36" y="-364.24" font-family="Times,serif" font-size="14.00">Conversation</text>
</g>
<!-- Role -->
<g id="node6" class="node" pointer-events="visible" data-name="Role">

<polygon fill="#5394ca" stroke="black" points="282.94,-250.6 138.94,-250.6 138.94,-178.6 282.94,-178.6 282.94,-250.6"/>
<text text-anchor="middle" x="210.94" y="-210.4" font-family="Times,serif" font-size="14.00">Role</text>
</g>
<!-- account_listing&#45;&#45;Listing -->
<g id="node7" class="node" pointer-events="visible" data-name="Message" data-comment="account_listing--Listing">

<polygon fill="#5394ca" stroke="black" points="883.98,-691.38 739.98,-691.38 739.98,-619.38 883.98,-619.38 883.98,-691.38"/>
<text text-anchor="middle" x="811.98" y="-651.18" font-family="Times,serif" font-size="14.00">Message</text>
</g><g id="edge13" class="edge" data-name="Conversation--conversation_message" data-comment="account_listing--Listing">

<path fill="none" stroke="black" d="M956.46,-404.77C963.66,-441.64 974.72,-498.18 981.66,-533.73"/>
</g>
<!-- account_profile&#45;&#45;Profile -->

<!-- account_role&#45;&#45;Role -->

<!-- account_conversation&#45;&#45;Conversation -->
<g id="edge4" class="edge" data-name="user_listing--Listing" data-comment="account_conversation--Conversation">

<path fill="none" stroke="black" d="M469.54,-659.37C471.37,-697.47 474.26,-757.81 476.11,-796.25"/>
</g>
<!-- listing_category&#45;&#45;Category -->
<g id="edge10" class="edge" data-name="listing_category--Category">

<path fill="none" stroke="black" d="M391.11,-1047.09C389.05,-1083.7 385.85,-1140.76 383.77,-1177.73"/>
</g><g id="edge15" class="edge" data-name="Message--message_user" data-comment="listing_category--Category">

<path fill="none" stroke="black" d="M787.39,-619.35C767.54,-590.27 740.04,-549.97 722.05,-523.61"/>
</g>
<!-- category_category&#45;&#45;Category -->
<!-- category_category&#45;&#45;Category -->
<g id="edge12" class="edge" data-name="category_category--Category">

<path fill="none" stroke="black" d="M274.6,-1323.37C297.74,-1303.5 329.4,-1273.57 352.33,-1249.98"/>
</g>
<!-- m -->
<!-- conversation_message -->

<!-- conversation_message -->
<g id="node16" class="node" pointer-events="visible" data-name="conversation_message">

<polygon fill="#53af16" stroke="black" points="988.08,-602.54 916.08,-566.54 988.08,-530.54 1060.08,-566.54 988.08,-602.54"/>
<text text-anchor="middle" x="988.08" y="-562.34" font-family="Times,serif" font-size="14.00">Belongs to</text>
</g><g id="node13" class="node" pointer-events="visible" data-name="user_conversation" data-comment="conversation_message">

<polygon fill="#53af16" stroke="black" points="748.05,-367.81 676.05,-331.81 748.05,-295.81 820.05,-331.81 748.05,-367.81"/>
<text text-anchor="middle" x="748.05" y="-327.61" font-family="Times,serif" font-size="14.00">Part of</text>
</g><g id="edge6" class="edge" data-name="user_conversation--Conversation" data-comment="conversation_message">

<path fill="none" stroke="black" d="M800.94,-341.43C824.24,-345.67 851.98,-350.72 877.14,-355.3"/>
</g><g id="edge17" class="edge" data-name="Message--message_listing" data-comment="conversation_message">

<path fill="none" stroke="black" d="M778.72,-691.58C755.08,-717.32 723.94,-751.22 703.05,-773.96"/>
</g>
<g id="node8" class="node" pointer-events="visible" data-name="Attachment" data-comment="conversation_message">

<polygon fill="#5394ca" stroke="black" points="736.92,-1221.47 592.92,-1221.47 592.92,-1149.47 736.92,-1149.47 736.92,-1221.47"/>
<text text-anchor="middle" x="664.92" y="-1181.27" font-family="Times,serif" font-size="14.00">Attachment</text>
</g>
<!-- conversation_message&#45;&#45;Message -->
<g id="edge14" class="edge" data-name="conversation_message--Message">

<path fill="none" stroke="black" d="M952.02,-584.73C932.29,-594.68 907.15,-607.37 883.62,-619.23"/>
</g><g id="edge19" class="edge" data-name="Attachment--attachment_category" data-comment="conversation_message--Message">

<path fill="none" stroke="black" d="M635.27,-1221.54C613.4,-1248.13 584.18,-1283.66 564.7,-1307.36"/>
</g><g id="edge21" class="edge" data-name="Attachment--attachment_listing" data-comment="conversation_message--Message">

<path fill="none" stroke="black" d="M652.87,-1149.09C641.21,-1113.85 623.72,-1061 612.71,-1027.72"/>
</g>
<!-- c -->
<g id="node1" class="node" pointer-events="visible" data-name="User" data-comment="c">

<polygon fill="#5394ca" stroke="black" points="617.24,-458.1 473.24,-458.1 473.24,-386.1 617.24,-386.1 617.24,-458.1"/>
<text text-anchor="middle" x="545.24" y="-417.9" font-family="Times,serif" font-size="14.00">User</text>
</g>
<!-- message_user -->
<g id="node17" class="node" pointer-events="visible" data-name="message_user">

<polygon fill="#53af16" stroke="black" points="703.64,-532.63 631.64,-496.63 703.64,-460.63 775.64,-496.63 703.64,-532.63"/>
<text text-anchor="middle" x="703.64" y="-492.43" font-family="Times,serif" font-size="14.00">Sent By</text>
</g>
<g id="edge2" class="edge" data-name="user_profile--Profile" data-comment="message_user">

<path fill="none" stroke="black" d="M546.57,-190.66C548.7,-156.86 551.92,-106.11 554.07,-72.06"/>
</g><g id="edge8" class="edge" data-name="user_role--Role" data-comment="message_user">

<path fill="none" stroke="black" d="M334.38,-312.37C312.54,-295.08 281.84,-270.76 256.52,-250.7"/>
</g><!-- message_user&#45;&#45;User -->
<g id="edge16" class="edge" data-name="message_user--User">

<path fill="none" stroke="black" d="M666.5,-479.16C651.78,-472.23 634.33,-464.02 617.32,-456.01"/>
</g><g id="node9" class="node" pointer-events="visible" data-name="Measurement" data-comment="message_user--User">

<polygon fill="#5394ca" stroke="black" points="144,-865.33 0,-865.33 0,-793.33 144,-793.33 144,-865.33"/>
<text text-anchor="middle" x="72" y="-825.13" font-family="Times,serif" font-size="14.00">Measurement</text>
</g>
<!-- me -->

<g id="node18" class="node" pointer-events="visible" data-name="message_listing" data-comment="me">

<polygon fill="#53af16" stroke="black" points="680.18,-834.86 608.18,-798.86 680.18,-762.86 752.18,-798.86 680.18,-834.86"/>
<text text-anchor="middle" x="680.18" y="-794.66" font-family="Times,serif" font-size="14.00">Is About</text>
</g>
<!-- L -->
<!-- message_listing&#45;&#45;Listing -->
<g id="edge18" class="edge" data-name="message_listing--Listing">

<path fill="none" stroke="black" d="M625.96,-807.88C602.66,-811.75 575.1,-816.33 550.11,-820.48"/>
</g>

<!-- A -->
<!-- attachment_listing -->
<g id="node19" class="node" pointer-events="visible" data-name="attachment_listing">

<polygon fill="#53af16" stroke="black" points="602.46,-1032.75 530.46,-996.75 602.46,-960.75 674.46,-996.75 602.46,-1032.75"/>
<text text-anchor="middle" x="602.46" y="-992.55" font-family="Times,serif" font-size="14.00">Has An</text>
</g>
<!-- attachment_listin -->

<!-- attachment_category -->
<g id="node20" class="node" pointer-events="visible" data-name="attachment_category">

<polygon fill="#53af16" stroke="black" points="543.71,-1368.89 471.71,-1332.89 543.71,-1296.89 615.71,-1332.89 543.71,-1368.89"/>
<text text-anchor="middle" x="543.71" y="-1328.69" font-family="Times,serif" font-size="14.00">Has An</text>
</g>
<!-- attachment_listing&#45;&#45;L -->

<!-- attachment_category&#45;&#45;Category -->
<!-- attachment_category&#45;&#45;Category -->
<g id="edge20" class="edge" data-name="attachment_category--Category">

<path fill="none" stroke="black" d="M514.38,-1311.33C491.13,-1294.25 458.14,-1270.01 430.88,-1249.97"/>
</g>
<!-- a -->
<g id="edge22" class="edge" data-name="attachment_listing--Listing" data-comment="a">

<path fill="none" stroke="black" d="M582.44,-970.36C561.52,-942.79 528.57,-899.36 505.25,-868.62"/>
</g>

<!-- l -->
<g id="node21" class="node" pointer-events="visible" data-name="listing_measurement" data-comment="l">

<polygon fill="#53af16" stroke="black" points="268.45,-855.45 196.45,-819.45 268.45,-783.45 340.45,-819.45 268.45,-855.45"/>
<text text-anchor="middle" x="268.45" y="-815.25" font-family="Times,serif" font-size="14.00">Uses</text>
</g>

<!-- M -->
<g id="edge24" class="edge" data-name="listing_measurement--Measurement" data-comment="M">

<path fill="none" stroke="black" d="M202.76,-822.75C183.91,-823.7 163.26,-824.74 144.05,-825.7"/>
</g>
</g>
</svg>